<?xml version="1.0" standalone="no"?><!DOCTYPE svg PUBLIC "-//W3C//DTD SVG 1.1//EN" "http://www.w3.org/Graphics/SVG/1.1/DTD/svg11.dtd"><svg t="1734425776531" class="icon" viewBox="0 0 1024 1024" version="1.1" xmlns="http://www.w3.org/2000/svg" p-id="4498" xmlns:xlink="http://www.w3.org/1999/xlink" width="128" height="128"><path d="M170.666667 236.481939L19.735273 85.581576 85.581576 19.704242 236.481939 170.666667h709.445819a46.545455 46.545455 0 0 1 44.590545 59.888485l-111.709091 372.363636a46.545455 46.545455 0 0 1-44.590545 33.202424H263.757576v93.090909h512v93.090909h-558.545455A46.545455 46.545455 0 0 1 170.666667 775.757576V236.481939zM240.484848 1008.484848a69.818182 69.818182 0 1 1 0-139.636363 69.818182 69.818182 0 0 1 0 139.636363z m558.545455 0a69.818182 69.818182 0 1 1 0-139.636363 69.818182 69.818182 0 0 1 0 139.636363z" fill="#ffffff" p-id="4499"></path></svg>